<?xml version="1.0" encoding="UTF-8" standalone="no"?>
<!-- Generator: Gravit.io -->
<svg xmlns="http://www.w3.org/2000/svg" xmlns:xlink="http://www.w3.org/1999/xlink" style="isolation:isolate" viewBox="0 0 1000 1000" width="1000pt" height="1000pt"><defs><clipPath id="_clipPath_4u3nV2fbfR5gmRbZGjg6PDaZxxEXpaWU"><rect width="1000" height="1000"/></clipPath></defs><g clip-path="url(#_clipPath_4u3nV2fbfR5gmRbZGjg6PDaZxxEXpaWU)"><path d=" M 166.836 368.197 L 166.836 368.197 L 95.255 368.197 L 95.255 470.278 L 95.255 470.278 Q 95.255 477.436 82.806 477.436 L 82.806 477.436 L 82.806 477.436 Q 70.357 477.436 70.357 470.278 L 70.357 470.278 L 70.357 300.351 L 70.357 300.351 Q 70.357 271.407 81.561 258.491 L 81.561 258.491 L 81.561 258.491 Q 92.765 245.575 119.53 245.575 L 119.53 245.575 L 179.285 245.575 L 179.285 245.575 Q 185.509 245.575 185.509 256.468 L 185.509 256.468 L 185.509 256.468 Q 185.509 267.361 179.285 267.361 L 179.285 267.361 L 119.53 267.361 L 119.53 267.361 Q 106.148 267.361 100.701 274.83 L 100.701 274.83 L 100.701 274.83 Q 95.255 282.3 95.255 300.351 L 95.255 300.351 L 95.255 346.412 L 166.836 346.412 L 166.836 346.412 Q 173.06 346.412 173.06 357.304 L 173.06 357.304 L 173.06 357.304 Q 173.06 368.197 166.836 368.197 Z " fill="rgb(255,255,255)"/><path d=" M 247.754 294.749 L 247.754 294.749 L 247.754 769.467 L 247.754 769.467 Q 247.754 779.426 252.422 787.985 L 252.422 787.985 L 252.422 787.985 Q 257.091 796.544 257.091 796.855 L 257.091 796.855 L 257.091 796.855 Q 257.091 800.589 251.177 804.791 L 251.177 804.791 L 251.177 804.791 Q 245.264 808.992 241.218 808.992 L 241.218 808.992 L 241.218 808.992 Q 234.683 808.992 228.769 797.633 L 228.769 797.633 L 228.769 797.633 Q 222.856 786.273 222.856 772.579 L 222.856 772.579 L 222.856 294.749 L 222.856 294.749 Q 222.856 287.59 235.305 287.59 L 235.305 287.59 L 235.305 287.59 Q 247.754 287.59 247.754 294.749 Z " fill="rgb(215,255,147)"/><path d=" M 248.688 228.458 L 248.688 228.458 L 248.688 255.535 L 248.688 255.535 Q 248.688 263.315 235.149 263.315 L 235.149 263.315 L 235.149 263.315 Q 221.611 263.315 221.611 255.535 L 221.611 255.535 L 221.611 228.458 L 221.611 228.458 Q 221.611 220.678 235.149 220.678 L 235.149 220.678 L 235.149 220.678 Q 248.688 220.678 248.688 228.458 Z " fill="rgb(255,255,255)"/><path d=" M 341.121 234.06 L 341.121 234.06 L 341.121 853.467 L 341.121 853.467 Q 341.121 863.426 345.789 871.985 L 345.789 871.985 L 345.789 871.985 Q 350.457 880.544 350.457 880.855 L 350.457 880.855 L 350.457 880.855 Q 350.457 884.589 344.544 888.791 L 344.544 888.791 L 344.544 888.791 Q 338.631 892.992 334.585 892.992 L 334.585 892.992 L 334.585 892.992 Q 328.049 892.992 322.136 881.633 L 322.136 881.633 L 322.136 881.633 Q 316.223 870.273 316.223 856.579 L 316.223 856.579 L 316.223 234.06 L 316.223 234.06 Q 316.223 226.902 328.672 226.902 L 328.672 226.902 L 328.672 226.902 Q 341.121 226.902 341.121 234.06 Z " fill="rgb(253,242,168)"/><path d=" M 434.488 234.06 L 434.488 234.06 L 434.488 853.467 L 434.488 853.467 Q 434.488 863.426 439.156 871.985 L 439.156 871.985 L 439.156 871.985 Q 443.824 880.544 443.824 880.855 L 443.824 880.855 L 443.824 880.855 Q 443.824 884.589 437.911 888.791 L 437.911 888.791 L 437.911 888.791 Q 431.998 892.992 427.952 892.992 L 427.952 892.992 L 427.952 892.992 Q 421.416 892.992 415.503 881.633 L 415.503 881.633 L 415.503 881.633 Q 409.59 870.273 409.59 856.579 L 409.59 856.579 L 409.59 234.06 L 409.59 234.06 Q 409.59 226.902 422.039 226.902 L 422.039 226.902 L 422.039 226.902 Q 434.488 226.902 434.488 234.06 Z " fill="rgb(234,152,119)"/><path d=" M 527.854 294.749 L 527.854 294.749 L 527.854 769.467 L 527.854 769.467 Q 527.854 779.426 532.523 787.985 L 532.523 787.985 L 532.523 787.985 Q 537.191 796.544 537.191 796.855 L 537.191 796.855 L 537.191 796.855 Q 537.191 800.589 531.278 804.791 L 531.278 804.791 L 531.278 804.791 Q 525.365 808.992 521.319 808.992 L 521.319 808.992 L 521.319 808.992 Q 514.783 808.992 508.87 797.633 L 508.87 797.633 L 508.87 797.633 Q 502.957 786.273 502.957 772.579 L 502.957 772.579 L 502.957 294.749 L 502.957 294.749 Q 502.957 287.59 515.406 287.59 L 515.406 287.59 L 515.406 287.59 Q 527.854 287.59 527.854 294.749 Z " fill="rgb(236,122,122)"/><path d=" M 528.788 228.458 L 528.788 228.458 L 528.788 255.535 L 528.788 255.535 Q 528.788 263.315 515.25 263.315 L 515.25 263.315 L 515.25 263.315 Q 501.712 263.315 501.712 255.535 L 501.712 255.535 L 501.712 228.458 L 501.712 228.458 Q 501.712 220.678 515.25 220.678 L 515.25 220.678 L 515.25 220.678 Q 528.788 220.678 528.788 228.458 Z " fill="rgb(255,255,255)"/><path d=" M 636.782 454.095 L 636.782 454.095 L 663.859 454.095 L 663.859 454.095 Q 706.185 454.095 706.185 429.819 L 706.185 429.819 L 706.185 330.539 L 706.185 330.539 Q 706.185 306.264 663.703 306.264 L 663.703 306.264 L 663.703 306.264 Q 621.221 306.264 621.221 330.539 L 621.221 330.539 L 621.221 548.084 L 621.221 548.084 Q 621.221 555.242 608.772 555.242 L 608.772 555.242 L 608.772 555.242 Q 596.323 555.242 596.323 548.084 L 596.323 548.084 L 596.323 333.651 L 596.323 333.651 Q 596.323 307.82 614.686 296.149 L 614.686 296.149 L 614.686 296.149 Q 633.048 284.478 663.548 284.478 L 663.548 284.478 L 663.548 284.478 Q 694.047 284.478 712.565 296.149 L 712.565 296.149 L 712.565 296.149 Q 731.083 307.82 731.083 333.651 L 731.083 333.651 L 731.083 426.707 L 731.083 426.707 Q 731.083 452.539 712.721 464.209 L 712.721 464.209 L 712.721 464.209 Q 694.359 475.88 663.859 475.88 L 663.859 475.88 L 636.782 475.88 L 636.782 475.88 Q 630.558 475.88 630.558 464.987 L 630.558 464.987 L 630.558 464.987 Q 630.558 454.095 636.782 454.095 Z " fill="rgb(255,255,255)"/><path d=" M 930.064 333.179 L 930.064 333.179 L 930.064 342.545 L 930.064 342.545 Q 930.064 369.08 919.138 379.07 L 919.138 379.07 L 919.138 379.07 Q 908.212 389.06 879.178 391.87 L 879.178 391.87 L 818.302 397.801 L 818.302 434.951 L 818.302 434.951 Q 818.302 459.302 858.886 459.302 L 858.886 459.302 L 858.886 459.302 Q 905.09 459.302 905.09 438.073 L 905.09 438.073 L 905.09 426.21 L 905.09 426.21 Q 905.09 419.03 917.577 419.03 L 917.577 419.03 L 917.577 419.03 Q 930.064 419.03 930.064 426.21 L 930.064 426.21 L 930.064 434.951 L 930.064 434.951 Q 930.064 481.155 861.384 481.155 L 861.384 481.155 L 861.384 481.155 Q 831.102 481.155 812.215 469.292 L 812.215 469.292 L 812.215 469.292 Q 793.327 457.429 793.327 431.83 L 793.327 431.83 L 793.327 333.803 L 793.327 333.803 Q 793.327 307.892 813.307 296.185 L 813.307 296.185 L 813.307 296.185 Q 833.287 284.478 865.442 284.478 L 865.442 284.478 L 865.442 284.478 Q 897.597 284.478 913.831 295.717 L 913.831 295.717 L 913.831 295.717 Q 930.064 306.956 930.064 333.179 Z  M 818.302 330.682 L 818.302 330.682 L 818.302 375.948 L 876.993 370.017 L 876.993 370.017 Q 894.788 368.144 899.939 362.524 L 899.939 362.524 L 899.939 362.524 Q 905.09 356.905 905.09 342.545 L 905.09 342.545 L 905.09 330.682 L 905.09 330.682 Q 905.09 306.331 861.696 306.331 L 861.696 306.331 L 861.696 306.331 Q 818.302 306.331 818.302 330.682 Z " fill="rgb(255,255,255)"/></g></svg>