<?xml version="1.0" encoding="UTF-8" standalone="no"?>
<!-- Generator: Gravit.io -->
<svg xmlns="http://www.w3.org/2000/svg" xmlns:xlink="http://www.w3.org/1999/xlink" style="isolation:isolate" viewBox="0 0 506 1000" width="506pt" height="1000pt"><defs><clipPath id="_clipPath_BUaJJ23g0C6aoyipWKWOF6JZX24nPrYz"><rect width="506" height="1000"/></clipPath></defs><g clip-path="url(#_clipPath_BUaJJ23g0C6aoyipWKWOF6JZX24nPrYz)"><g><path d=" M 57.485 122.031 L 57.485 122.031 L 57.485 798.614 L 57.485 798.614 Q 57.485 812.808 64.139 825.006 L 64.139 825.006 L 64.139 825.006 Q 70.792 837.204 70.792 837.648 L 70.792 837.648 L 70.792 837.648 Q 70.792 842.971 62.364 848.959 L 62.364 848.959 L 62.364 848.959 Q 53.937 854.947 48.17 854.947 L 48.17 854.947 L 48.17 854.947 Q 38.855 854.947 30.428 838.757 L 30.428 838.757 L 30.428 838.757 Q 22 822.567 22 803.05 L 22 803.05 L 22 122.031 L 22 122.031 Q 22 111.829 39.743 111.829 L 39.743 111.829 L 39.743 111.829 Q 57.485 111.829 57.485 122.031 Z " fill="rgb(215,255,147)"/><path d=" M 190.554 35.536 L 190.554 35.536 L 190.554 918.334 L 190.554 918.334 Q 190.554 932.528 197.208 944.726 L 197.208 944.726 L 197.208 944.726 Q 203.861 956.924 203.861 957.367 L 203.861 957.367 L 203.861 957.367 Q 203.861 962.69 195.434 968.678 L 195.434 968.678 L 195.434 968.678 Q 187.006 974.666 181.24 974.666 L 181.24 974.666 L 181.24 974.666 Q 171.925 974.666 163.497 958.476 L 163.497 958.476 L 163.497 958.476 Q 155.069 942.286 155.069 922.769 L 155.069 922.769 L 155.069 35.536 L 155.069 35.536 Q 155.069 25.334 172.812 25.334 L 172.812 25.334 L 172.812 25.334 Q 190.554 25.334 190.554 35.536 Z " fill="rgb(253,242,168)"/><path d=" M 323.624 35.536 L 323.624 35.536 L 323.624 918.334 L 323.624 918.334 Q 323.624 932.528 330.277 944.726 L 330.277 944.726 L 330.277 944.726 Q 336.931 956.924 336.931 957.367 L 336.931 957.367 L 336.931 957.367 Q 336.931 962.69 328.503 968.678 L 328.503 968.678 L 328.503 968.678 Q 320.075 974.666 314.309 974.666 L 314.309 974.666 L 314.309 974.666 Q 304.994 974.666 296.566 958.476 L 296.566 958.476 L 296.566 958.476 Q 288.139 942.286 288.139 922.769 L 288.139 922.769 L 288.139 35.536 L 288.139 35.536 Q 288.139 25.334 305.881 25.334 L 305.881 25.334 L 305.881 25.334 Q 323.624 25.334 323.624 35.536 Z " fill="rgb(234,152,119)"/><path d=" M 456.693 122.031 L 456.693 122.031 L 456.693 798.614 L 456.693 798.614 Q 456.693 812.808 463.347 825.006 L 463.347 825.006 L 463.347 825.006 Q 470 837.204 470 837.648 L 470 837.648 L 470 837.648 Q 470 842.971 461.572 848.959 L 461.572 848.959 L 461.572 848.959 Q 453.145 854.947 447.378 854.947 L 447.378 854.947 L 447.378 854.947 Q 438.063 854.947 429.636 838.757 L 429.636 838.757 L 429.636 838.757 Q 421.208 822.567 421.208 803.05 L 421.208 803.05 L 421.208 122.031 L 421.208 122.031 Q 421.208 111.829 438.951 111.829 L 438.951 111.829 L 438.951 111.829 Q 456.693 111.829 456.693 122.031 Z " fill="rgb(236,122,122)"/></g><g><path d=" M -866.521 399.52 L -866.521 399.52 L -938.102 399.52 L -938.102 501.601 L -938.102 501.601 Q -938.102 508.759 -950.551 508.759 L -950.551 508.759 L -950.551 508.759 Q -963 508.759 -963 501.601 L -963 501.601 L -963 331.673 L -963 331.673 Q -963 302.729 -951.796 289.814 L -951.796 289.814 L -951.796 289.814 Q -940.592 276.898 -913.827 276.898 L -913.827 276.898 L -854.072 276.898 L -854.072 276.898 Q -847.848 276.898 -847.848 287.791 L -847.848 287.791 L -847.848 287.791 Q -847.848 298.683 -854.072 298.683 L -854.072 298.683 L -913.827 298.683 L -913.827 298.683 Q -927.209 298.683 -932.656 306.153 L -932.656 306.153 L -932.656 306.153 Q -938.102 313.622 -938.102 331.673 L -938.102 331.673 L -938.102 377.734 L -866.521 377.734 L -866.521 377.734 Q -860.296 377.734 -860.296 388.627 L -860.296 388.627 L -860.296 388.627 Q -860.296 399.52 -866.521 399.52 Z " fill="rgb(255,255,255)"/><path d=" M -785.603 326.071 L -785.603 326.071 L -785.603 800.79 L -785.603 800.79 Q -785.603 810.749 -780.935 819.307 L -780.935 819.307 L -780.935 819.307 Q -776.266 827.866 -776.266 828.177 L -776.266 828.177 L -776.266 828.177 Q -776.266 831.912 -782.18 836.113 L -782.18 836.113 L -782.18 836.113 Q -788.093 840.315 -792.139 840.315 L -792.139 840.315 L -792.139 840.315 Q -798.674 840.315 -804.588 828.955 L -804.588 828.955 L -804.588 828.955 Q -810.501 817.596 -810.501 803.902 L -810.501 803.902 L -810.501 326.071 L -810.501 326.071 Q -810.501 318.913 -798.052 318.913 L -798.052 318.913 L -798.052 318.913 Q -785.603 318.913 -785.603 326.071 Z " fill="rgb(215,255,147)"/><path d=" M -784.669 259.781 L -784.669 259.781 L -784.669 286.857 L -784.669 286.857 Q -784.669 294.638 -798.208 294.638 L -798.208 294.638 L -798.208 294.638 Q -811.746 294.638 -811.746 286.857 L -811.746 286.857 L -811.746 259.781 L -811.746 259.781 Q -811.746 252 -798.208 252 L -798.208 252 L -798.208 252 Q -784.669 252 -784.669 259.781 Z " fill="rgb(255,255,255)"/><path d=" M -692.236 265.383 L -692.236 265.383 L -692.236 884.79 L -692.236 884.79 Q -692.236 894.749 -687.568 903.307 L -687.568 903.307 L -687.568 903.307 Q -682.899 911.866 -682.899 912.177 L -682.899 912.177 L -682.899 912.177 Q -682.899 915.912 -688.813 920.113 L -688.813 920.113 L -688.813 920.113 Q -694.726 924.315 -698.772 924.315 L -698.772 924.315 L -698.772 924.315 Q -705.308 924.315 -711.221 912.955 L -711.221 912.955 L -711.221 912.955 Q -717.134 901.596 -717.134 887.902 L -717.134 887.902 L -717.134 265.383 L -717.134 265.383 Q -717.134 258.224 -704.685 258.224 L -704.685 258.224 L -704.685 258.224 Q -692.236 258.224 -692.236 265.383 Z " fill="rgb(253,242,168)"/><path d=" M -598.869 265.383 L -598.869 265.383 L -598.869 884.79 L -598.869 884.79 Q -598.869 894.749 -594.201 903.307 L -594.201 903.307 L -594.201 903.307 Q -589.533 911.866 -589.533 912.177 L -589.533 912.177 L -589.533 912.177 Q -589.533 915.912 -595.446 920.113 L -595.446 920.113 L -595.446 920.113 Q -601.359 924.315 -605.405 924.315 L -605.405 924.315 L -605.405 924.315 Q -611.941 924.315 -617.854 912.955 L -617.854 912.955 L -617.854 912.955 Q -623.767 901.596 -623.767 887.902 L -623.767 887.902 L -623.767 265.383 L -623.767 265.383 Q -623.767 258.224 -611.318 258.224 L -611.318 258.224 L -611.318 258.224 Q -598.869 258.224 -598.869 265.383 Z " fill="rgb(234,152,119)"/><path d=" M -505.503 326.071 L -505.503 326.071 L -505.503 800.79 L -505.503 800.79 Q -505.503 810.749 -500.834 819.307 L -500.834 819.307 L -500.834 819.307 Q -496.166 827.866 -496.166 828.177 L -496.166 828.177 L -496.166 828.177 Q -496.166 831.912 -502.079 836.113 L -502.079 836.113 L -502.079 836.113 Q -507.992 840.315 -512.038 840.315 L -512.038 840.315 L -512.038 840.315 Q -518.574 840.315 -524.487 828.955 L -524.487 828.955 L -524.487 828.955 Q -530.4 817.596 -530.4 803.902 L -530.4 803.902 L -530.4 326.071 L -530.4 326.071 Q -530.4 318.913 -517.951 318.913 L -517.951 318.913 L -517.951 318.913 Q -505.503 318.913 -505.503 326.071 Z " fill="rgb(236,122,122)"/><path d=" M -504.569 259.781 L -504.569 259.781 L -504.569 286.857 L -504.569 286.857 Q -504.569 294.638 -518.107 294.638 L -518.107 294.638 L -518.107 294.638 Q -531.645 294.638 -531.645 286.857 L -531.645 286.857 L -531.645 259.781 L -531.645 259.781 Q -531.645 252 -518.107 252 L -518.107 252 L -518.107 252 Q -504.569 252 -504.569 259.781 Z " fill="rgb(255,255,255)"/><path d=" M -396.575 485.417 L -396.575 485.417 L -369.498 485.417 L -369.498 485.417 Q -327.172 485.417 -327.172 461.142 L -327.172 461.142 L -327.172 361.862 L -327.172 361.862 Q -327.172 337.586 -369.654 337.586 L -369.654 337.586 L -369.654 337.586 Q -412.136 337.586 -412.136 361.862 L -412.136 361.862 L -412.136 579.406 L -412.136 579.406 Q -412.136 586.565 -424.585 586.565 L -424.585 586.565 L -424.585 586.565 Q -437.034 586.565 -437.034 579.406 L -437.034 579.406 L -437.034 364.974 L -437.034 364.974 Q -437.034 339.142 -418.671 327.472 L -418.671 327.472 L -418.671 327.472 Q -400.309 315.801 -369.809 315.801 L -369.809 315.801 L -369.809 315.801 Q -339.31 315.801 -320.792 327.472 L -320.792 327.472 L -320.792 327.472 Q -302.274 339.142 -302.274 364.974 L -302.274 364.974 L -302.274 458.029 L -302.274 458.029 Q -302.274 483.861 -320.636 495.532 L -320.636 495.532 L -320.636 495.532 Q -338.998 507.203 -369.498 507.203 L -369.498 507.203 L -396.575 507.203 L -396.575 507.203 Q -402.799 507.203 -402.799 496.31 L -402.799 496.31 L -402.799 496.31 Q -402.799 485.417 -396.575 485.417 Z " fill="rgb(255,255,255)"/><path d=" M -103.292 364.502 L -103.292 364.502 L -103.292 373.867 L -103.292 373.867 Q -103.292 400.403 -114.219 410.393 L -114.219 410.393 L -114.219 410.393 Q -125.145 420.383 -154.179 423.192 L -154.179 423.192 L -215.055 429.124 L -215.055 466.274 L -215.055 466.274 Q -215.055 490.624 -174.471 490.624 L -174.471 490.624 L -174.471 490.624 Q -128.267 490.624 -128.267 469.396 L -128.267 469.396 L -128.267 457.533 L -128.267 457.533 Q -128.267 450.352 -115.78 450.352 L -115.78 450.352 L -115.78 450.352 Q -103.292 450.352 -103.292 457.533 L -103.292 457.533 L -103.292 466.274 L -103.292 466.274 Q -103.292 512.477 -171.973 512.477 L -171.973 512.477 L -171.973 512.477 Q -202.255 512.477 -221.142 500.614 L -221.142 500.614 L -221.142 500.614 Q -240.029 488.751 -240.029 463.152 L -240.029 463.152 L -240.029 365.126 L -240.029 365.126 Q -240.029 339.215 -220.05 327.508 L -220.05 327.508 L -220.05 327.508 Q -200.07 315.801 -167.915 315.801 L -167.915 315.801 L -167.915 315.801 Q -135.76 315.801 -119.526 327.039 L -119.526 327.039 L -119.526 327.039 Q -103.292 338.278 -103.292 364.502 Z  M -215.055 362.004 L -215.055 362.004 L -215.055 407.271 L -156.364 401.339 L -156.364 401.339 Q -138.569 399.466 -133.418 393.847 L -133.418 393.847 L -133.418 393.847 Q -128.267 388.228 -128.267 373.867 L -128.267 373.867 L -128.267 362.004 L -128.267 362.004 Q -128.267 337.654 -171.661 337.654 L -171.661 337.654 L -171.661 337.654 Q -215.055 337.654 -215.055 362.004 Z " fill="rgb(255,255,255)"/></g></g></svg>